<mxfile host="app.diagrams.net" modified="2023-08-08T12:46:06.099Z" agent="Mozilla/5.0 (Windows NT 10.0; Win64; x64) AppleWebKit/537.36 (KHTML, like Gecko) Chrome/114.0.0.0 Safari/537.36 OPR/100.0.0.0" etag="QMPh06gphLzSH9jBSYpJ" version="21.6.6" type="device">
  <diagram name="Seite-1" id="4aER88mjbAzxUeDtD6Lr">
    <mxGraphModel dx="796" dy="455" grid="1" gridSize="10" guides="1" tooltips="1" connect="1" arrows="1" fold="1" page="1" pageScale="1" pageWidth="827" pageHeight="1169" math="0" shadow="0">
      <root>
        <mxCell id="0" />
        <mxCell id="1" parent="0" />
        <mxCell id="JNDwvkAT6pirvPWPOGVq-1" value="AC0" style="rounded=0;whiteSpace=wrap;html=1;" vertex="1" parent="1">
          <mxGeometry x="130" y="320" width="40" height="40" as="geometry" />
        </mxCell>
        <mxCell id="JNDwvkAT6pirvPWPOGVq-2" value="AC1" style="whiteSpace=wrap;html=1;aspect=fixed;" vertex="1" parent="1">
          <mxGeometry x="220" y="320" width="40" height="40" as="geometry" />
        </mxCell>
        <mxCell id="JNDwvkAT6pirvPWPOGVq-3" value="AC2" style="rounded=0;whiteSpace=wrap;html=1;" vertex="1" parent="1">
          <mxGeometry x="310" y="320" width="40" height="40" as="geometry" />
        </mxCell>
        <mxCell id="JNDwvkAT6pirvPWPOGVq-4" value="AC3" style="whiteSpace=wrap;html=1;aspect=fixed;" vertex="1" parent="1">
          <mxGeometry x="400" y="320" width="40" height="40" as="geometry" />
        </mxCell>
        <mxCell id="JNDwvkAT6pirvPWPOGVq-5" value="AC4" style="rounded=0;whiteSpace=wrap;html=1;" vertex="1" parent="1">
          <mxGeometry x="490" y="320" width="40" height="40" as="geometry" />
        </mxCell>
        <mxCell id="JNDwvkAT6pirvPWPOGVq-7" value="" style="endArrow=classic;startArrow=classic;html=1;rounded=0;" edge="1" parent="1">
          <mxGeometry width="50" height="50" relative="1" as="geometry">
            <mxPoint x="140" y="320" as="sourcePoint" />
            <mxPoint x="140" y="300" as="targetPoint" />
          </mxGeometry>
        </mxCell>
        <mxCell id="JNDwvkAT6pirvPWPOGVq-8" value="" style="endArrow=classic;startArrow=classic;html=1;rounded=0;" edge="1" parent="1">
          <mxGeometry width="50" height="50" relative="1" as="geometry">
            <mxPoint x="160" y="320" as="sourcePoint" />
            <mxPoint x="160" y="300" as="targetPoint" />
          </mxGeometry>
        </mxCell>
        <mxCell id="JNDwvkAT6pirvPWPOGVq-17" value="&lt;font style=&quot;font-size: 12px;&quot;&gt;Bus-&lt;br&gt;Connector&lt;/font&gt;" style="rounded=0;whiteSpace=wrap;html=1;" vertex="1" parent="1">
          <mxGeometry x="120" y="250" width="60" height="50" as="geometry" />
        </mxCell>
        <mxCell id="JNDwvkAT6pirvPWPOGVq-19" value="" style="endArrow=classic;startArrow=classic;html=1;rounded=0;" edge="1" parent="1">
          <mxGeometry width="50" height="50" relative="1" as="geometry">
            <mxPoint x="180" y="290" as="sourcePoint" />
            <mxPoint x="210" y="290" as="targetPoint" />
          </mxGeometry>
        </mxCell>
        <mxCell id="JNDwvkAT6pirvPWPOGVq-20" value="" style="endArrow=classic;startArrow=classic;html=1;rounded=0;" edge="1" parent="1">
          <mxGeometry width="50" height="50" relative="1" as="geometry">
            <mxPoint x="180" y="280" as="sourcePoint" />
            <mxPoint x="210" y="280" as="targetPoint" />
          </mxGeometry>
        </mxCell>
        <mxCell id="JNDwvkAT6pirvPWPOGVq-21" value="" style="endArrow=classic;startArrow=classic;html=1;rounded=0;" edge="1" parent="1">
          <mxGeometry width="50" height="50" relative="1" as="geometry">
            <mxPoint x="180" y="270" as="sourcePoint" />
            <mxPoint x="210" y="270" as="targetPoint" />
          </mxGeometry>
        </mxCell>
        <mxCell id="JNDwvkAT6pirvPWPOGVq-22" value="" style="endArrow=classic;startArrow=classic;html=1;rounded=0;" edge="1" parent="1">
          <mxGeometry width="50" height="50" relative="1" as="geometry">
            <mxPoint x="180" y="260" as="sourcePoint" />
            <mxPoint x="210" y="260" as="targetPoint" />
          </mxGeometry>
        </mxCell>
        <mxCell id="JNDwvkAT6pirvPWPOGVq-23" value="" style="endArrow=classic;startArrow=classic;html=1;rounded=0;" edge="1" parent="1">
          <mxGeometry width="50" height="50" relative="1" as="geometry">
            <mxPoint x="230" y="320" as="sourcePoint" />
            <mxPoint x="230" y="300" as="targetPoint" />
          </mxGeometry>
        </mxCell>
        <mxCell id="JNDwvkAT6pirvPWPOGVq-24" value="" style="endArrow=classic;startArrow=classic;html=1;rounded=0;" edge="1" parent="1">
          <mxGeometry width="50" height="50" relative="1" as="geometry">
            <mxPoint x="250" y="320" as="sourcePoint" />
            <mxPoint x="250" y="300" as="targetPoint" />
          </mxGeometry>
        </mxCell>
        <mxCell id="JNDwvkAT6pirvPWPOGVq-25" value="&lt;font style=&quot;font-size: 12px;&quot;&gt;Bus-&lt;br&gt;Connector&lt;/font&gt;" style="rounded=0;whiteSpace=wrap;html=1;" vertex="1" parent="1">
          <mxGeometry x="210" y="250" width="60" height="50" as="geometry" />
        </mxCell>
        <mxCell id="JNDwvkAT6pirvPWPOGVq-26" value="" style="endArrow=classic;startArrow=classic;html=1;rounded=0;" edge="1" parent="1">
          <mxGeometry width="50" height="50" relative="1" as="geometry">
            <mxPoint x="270" y="290" as="sourcePoint" />
            <mxPoint x="300" y="290" as="targetPoint" />
          </mxGeometry>
        </mxCell>
        <mxCell id="JNDwvkAT6pirvPWPOGVq-27" value="" style="endArrow=classic;startArrow=classic;html=1;rounded=0;" edge="1" parent="1">
          <mxGeometry width="50" height="50" relative="1" as="geometry">
            <mxPoint x="270" y="280" as="sourcePoint" />
            <mxPoint x="300" y="280" as="targetPoint" />
          </mxGeometry>
        </mxCell>
        <mxCell id="JNDwvkAT6pirvPWPOGVq-28" value="" style="endArrow=classic;startArrow=classic;html=1;rounded=0;" edge="1" parent="1">
          <mxGeometry width="50" height="50" relative="1" as="geometry">
            <mxPoint x="270" y="270" as="sourcePoint" />
            <mxPoint x="300" y="270" as="targetPoint" />
          </mxGeometry>
        </mxCell>
        <mxCell id="JNDwvkAT6pirvPWPOGVq-29" value="" style="endArrow=classic;startArrow=classic;html=1;rounded=0;" edge="1" parent="1">
          <mxGeometry width="50" height="50" relative="1" as="geometry">
            <mxPoint x="270" y="260" as="sourcePoint" />
            <mxPoint x="300" y="260" as="targetPoint" />
          </mxGeometry>
        </mxCell>
        <mxCell id="JNDwvkAT6pirvPWPOGVq-30" value="" style="endArrow=classic;startArrow=classic;html=1;rounded=0;" edge="1" parent="1">
          <mxGeometry width="50" height="50" relative="1" as="geometry">
            <mxPoint x="320" y="320" as="sourcePoint" />
            <mxPoint x="320" y="300" as="targetPoint" />
          </mxGeometry>
        </mxCell>
        <mxCell id="JNDwvkAT6pirvPWPOGVq-31" value="" style="endArrow=classic;startArrow=classic;html=1;rounded=0;" edge="1" parent="1">
          <mxGeometry width="50" height="50" relative="1" as="geometry">
            <mxPoint x="340" y="320" as="sourcePoint" />
            <mxPoint x="340" y="300" as="targetPoint" />
          </mxGeometry>
        </mxCell>
        <mxCell id="JNDwvkAT6pirvPWPOGVq-32" value="&lt;font style=&quot;font-size: 12px;&quot;&gt;Bus-&lt;br&gt;Connector&lt;/font&gt;" style="rounded=0;whiteSpace=wrap;html=1;" vertex="1" parent="1">
          <mxGeometry x="300" y="250" width="60" height="50" as="geometry" />
        </mxCell>
        <mxCell id="JNDwvkAT6pirvPWPOGVq-33" value="" style="endArrow=classic;startArrow=classic;html=1;rounded=0;" edge="1" parent="1">
          <mxGeometry width="50" height="50" relative="1" as="geometry">
            <mxPoint x="360" y="290" as="sourcePoint" />
            <mxPoint x="390" y="290" as="targetPoint" />
          </mxGeometry>
        </mxCell>
        <mxCell id="JNDwvkAT6pirvPWPOGVq-34" value="" style="endArrow=classic;startArrow=classic;html=1;rounded=0;" edge="1" parent="1">
          <mxGeometry width="50" height="50" relative="1" as="geometry">
            <mxPoint x="360" y="280" as="sourcePoint" />
            <mxPoint x="390" y="280" as="targetPoint" />
          </mxGeometry>
        </mxCell>
        <mxCell id="JNDwvkAT6pirvPWPOGVq-35" value="" style="endArrow=classic;startArrow=classic;html=1;rounded=0;" edge="1" parent="1">
          <mxGeometry width="50" height="50" relative="1" as="geometry">
            <mxPoint x="360" y="270" as="sourcePoint" />
            <mxPoint x="390" y="270" as="targetPoint" />
          </mxGeometry>
        </mxCell>
        <mxCell id="JNDwvkAT6pirvPWPOGVq-36" value="" style="endArrow=classic;startArrow=classic;html=1;rounded=0;" edge="1" parent="1">
          <mxGeometry width="50" height="50" relative="1" as="geometry">
            <mxPoint x="360" y="260" as="sourcePoint" />
            <mxPoint x="390" y="260" as="targetPoint" />
          </mxGeometry>
        </mxCell>
        <mxCell id="JNDwvkAT6pirvPWPOGVq-37" value="" style="endArrow=classic;startArrow=classic;html=1;rounded=0;" edge="1" parent="1">
          <mxGeometry width="50" height="50" relative="1" as="geometry">
            <mxPoint x="410" y="320" as="sourcePoint" />
            <mxPoint x="410" y="300" as="targetPoint" />
          </mxGeometry>
        </mxCell>
        <mxCell id="JNDwvkAT6pirvPWPOGVq-38" value="" style="endArrow=classic;startArrow=classic;html=1;rounded=0;" edge="1" parent="1">
          <mxGeometry width="50" height="50" relative="1" as="geometry">
            <mxPoint x="430" y="320" as="sourcePoint" />
            <mxPoint x="430" y="300" as="targetPoint" />
          </mxGeometry>
        </mxCell>
        <mxCell id="JNDwvkAT6pirvPWPOGVq-39" value="&lt;font style=&quot;font-size: 12px;&quot;&gt;Bus-&lt;br&gt;Connector&lt;/font&gt;" style="rounded=0;whiteSpace=wrap;html=1;" vertex="1" parent="1">
          <mxGeometry x="390" y="250" width="60" height="50" as="geometry" />
        </mxCell>
        <mxCell id="JNDwvkAT6pirvPWPOGVq-40" value="" style="endArrow=classic;startArrow=classic;html=1;rounded=0;" edge="1" parent="1">
          <mxGeometry width="50" height="50" relative="1" as="geometry">
            <mxPoint x="450" y="290" as="sourcePoint" />
            <mxPoint x="480" y="290" as="targetPoint" />
          </mxGeometry>
        </mxCell>
        <mxCell id="JNDwvkAT6pirvPWPOGVq-41" value="" style="endArrow=classic;startArrow=classic;html=1;rounded=0;" edge="1" parent="1">
          <mxGeometry width="50" height="50" relative="1" as="geometry">
            <mxPoint x="450" y="280" as="sourcePoint" />
            <mxPoint x="480" y="280" as="targetPoint" />
          </mxGeometry>
        </mxCell>
        <mxCell id="JNDwvkAT6pirvPWPOGVq-42" value="" style="endArrow=classic;startArrow=classic;html=1;rounded=0;" edge="1" parent="1">
          <mxGeometry width="50" height="50" relative="1" as="geometry">
            <mxPoint x="450" y="270" as="sourcePoint" />
            <mxPoint x="480" y="270" as="targetPoint" />
          </mxGeometry>
        </mxCell>
        <mxCell id="JNDwvkAT6pirvPWPOGVq-43" value="" style="endArrow=classic;startArrow=classic;html=1;rounded=0;" edge="1" parent="1">
          <mxGeometry width="50" height="50" relative="1" as="geometry">
            <mxPoint x="450" y="260" as="sourcePoint" />
            <mxPoint x="480" y="260" as="targetPoint" />
          </mxGeometry>
        </mxCell>
        <mxCell id="JNDwvkAT6pirvPWPOGVq-44" value="" style="endArrow=classic;startArrow=classic;html=1;rounded=0;" edge="1" parent="1">
          <mxGeometry width="50" height="50" relative="1" as="geometry">
            <mxPoint x="500" y="320" as="sourcePoint" />
            <mxPoint x="500" y="300" as="targetPoint" />
          </mxGeometry>
        </mxCell>
        <mxCell id="JNDwvkAT6pirvPWPOGVq-45" value="" style="endArrow=classic;startArrow=classic;html=1;rounded=0;" edge="1" parent="1">
          <mxGeometry width="50" height="50" relative="1" as="geometry">
            <mxPoint x="520" y="320" as="sourcePoint" />
            <mxPoint x="520" y="300" as="targetPoint" />
          </mxGeometry>
        </mxCell>
        <mxCell id="JNDwvkAT6pirvPWPOGVq-46" value="&lt;font style=&quot;font-size: 12px;&quot;&gt;Bus-&lt;br&gt;Connector&lt;/font&gt;" style="rounded=0;whiteSpace=wrap;html=1;" vertex="1" parent="1">
          <mxGeometry x="480" y="250" width="60" height="50" as="geometry" />
        </mxCell>
        <mxCell id="JNDwvkAT6pirvPWPOGVq-47" value="" style="endArrow=classic;startArrow=classic;html=1;rounded=0;" edge="1" parent="1">
          <mxGeometry width="50" height="50" relative="1" as="geometry">
            <mxPoint x="540" y="420" as="sourcePoint" />
            <mxPoint x="540" y="260" as="targetPoint" />
            <Array as="points">
              <mxPoint x="590" y="420" />
              <mxPoint x="590" y="260" />
            </Array>
          </mxGeometry>
        </mxCell>
        <mxCell id="JNDwvkAT6pirvPWPOGVq-48" value="" style="endArrow=classic;startArrow=classic;html=1;rounded=0;" edge="1" parent="1">
          <mxGeometry width="50" height="50" relative="1" as="geometry">
            <mxPoint x="540" y="410" as="sourcePoint" />
            <mxPoint x="540" y="270" as="targetPoint" />
            <Array as="points">
              <mxPoint x="580" y="410" />
              <mxPoint x="580" y="270" />
            </Array>
          </mxGeometry>
        </mxCell>
        <mxCell id="JNDwvkAT6pirvPWPOGVq-49" value="" style="endArrow=classic;startArrow=classic;html=1;rounded=0;" edge="1" parent="1">
          <mxGeometry width="50" height="50" relative="1" as="geometry">
            <mxPoint x="540" y="400" as="sourcePoint" />
            <mxPoint x="540" y="280" as="targetPoint" />
            <Array as="points">
              <mxPoint x="570" y="400" />
              <mxPoint x="570" y="280" />
            </Array>
          </mxGeometry>
        </mxCell>
        <mxCell id="JNDwvkAT6pirvPWPOGVq-50" value="" style="endArrow=classic;startArrow=classic;html=1;rounded=0;" edge="1" parent="1">
          <mxGeometry width="50" height="50" relative="1" as="geometry">
            <mxPoint x="540" y="390" as="sourcePoint" />
            <mxPoint x="540" y="290" as="targetPoint" />
            <Array as="points">
              <mxPoint x="560" y="390" />
              <mxPoint x="560" y="290" />
            </Array>
          </mxGeometry>
        </mxCell>
        <mxCell id="JNDwvkAT6pirvPWPOGVq-51" value="AGU 0" style="rounded=0;whiteSpace=wrap;html=1;" vertex="1" parent="1">
          <mxGeometry x="480" y="180" width="60" height="50" as="geometry" />
        </mxCell>
        <mxCell id="JNDwvkAT6pirvPWPOGVq-52" value="AGU 1" style="rounded=0;whiteSpace=wrap;html=1;" vertex="1" parent="1">
          <mxGeometry x="390" y="180" width="60" height="50" as="geometry" />
        </mxCell>
        <mxCell id="JNDwvkAT6pirvPWPOGVq-53" value="LSU 0" style="rounded=0;whiteSpace=wrap;html=1;" vertex="1" parent="1">
          <mxGeometry x="300" y="180" width="60" height="50" as="geometry" />
        </mxCell>
        <mxCell id="JNDwvkAT6pirvPWPOGVq-54" value="AGU 2" style="rounded=0;whiteSpace=wrap;html=1;" vertex="1" parent="1">
          <mxGeometry x="210" y="180" width="60" height="50" as="geometry" />
        </mxCell>
        <mxCell id="JNDwvkAT6pirvPWPOGVq-55" value="Repack 0" style="rounded=0;whiteSpace=wrap;html=1;" vertex="1" parent="1">
          <mxGeometry x="120" y="180" width="60" height="50" as="geometry" />
        </mxCell>
        <mxCell id="JNDwvkAT6pirvPWPOGVq-56" value="" style="endArrow=classic;startArrow=classic;html=1;rounded=0;" edge="1" parent="1">
          <mxGeometry width="50" height="50" relative="1" as="geometry">
            <mxPoint x="450" y="219.70999999999998" as="sourcePoint" />
            <mxPoint x="480" y="219.70999999999998" as="targetPoint" />
          </mxGeometry>
        </mxCell>
        <mxCell id="JNDwvkAT6pirvPWPOGVq-57" value="" style="endArrow=classic;startArrow=classic;html=1;rounded=0;" edge="1" parent="1">
          <mxGeometry width="50" height="50" relative="1" as="geometry">
            <mxPoint x="450" y="209.70999999999998" as="sourcePoint" />
            <mxPoint x="480" y="209.70999999999998" as="targetPoint" />
          </mxGeometry>
        </mxCell>
        <mxCell id="JNDwvkAT6pirvPWPOGVq-58" value="" style="endArrow=classic;startArrow=classic;html=1;rounded=0;" edge="1" parent="1">
          <mxGeometry width="50" height="50" relative="1" as="geometry">
            <mxPoint x="450" y="199.70999999999998" as="sourcePoint" />
            <mxPoint x="480" y="199.70999999999998" as="targetPoint" />
          </mxGeometry>
        </mxCell>
        <mxCell id="JNDwvkAT6pirvPWPOGVq-59" value="" style="endArrow=classic;startArrow=classic;html=1;rounded=0;" edge="1" parent="1">
          <mxGeometry width="50" height="50" relative="1" as="geometry">
            <mxPoint x="450" y="189.70999999999998" as="sourcePoint" />
            <mxPoint x="480" y="189.70999999999998" as="targetPoint" />
          </mxGeometry>
        </mxCell>
        <mxCell id="JNDwvkAT6pirvPWPOGVq-60" value="" style="endArrow=classic;startArrow=classic;html=1;rounded=0;" edge="1" parent="1">
          <mxGeometry width="50" height="50" relative="1" as="geometry">
            <mxPoint x="360" y="219.70999999999998" as="sourcePoint" />
            <mxPoint x="390" y="219.70999999999998" as="targetPoint" />
          </mxGeometry>
        </mxCell>
        <mxCell id="JNDwvkAT6pirvPWPOGVq-61" value="" style="endArrow=classic;startArrow=classic;html=1;rounded=0;" edge="1" parent="1">
          <mxGeometry width="50" height="50" relative="1" as="geometry">
            <mxPoint x="360" y="209.70999999999998" as="sourcePoint" />
            <mxPoint x="390" y="209.70999999999998" as="targetPoint" />
          </mxGeometry>
        </mxCell>
        <mxCell id="JNDwvkAT6pirvPWPOGVq-62" value="" style="endArrow=classic;startArrow=classic;html=1;rounded=0;" edge="1" parent="1">
          <mxGeometry width="50" height="50" relative="1" as="geometry">
            <mxPoint x="360" y="199.70999999999998" as="sourcePoint" />
            <mxPoint x="390" y="199.70999999999998" as="targetPoint" />
          </mxGeometry>
        </mxCell>
        <mxCell id="JNDwvkAT6pirvPWPOGVq-63" value="" style="endArrow=classic;startArrow=classic;html=1;rounded=0;" edge="1" parent="1">
          <mxGeometry width="50" height="50" relative="1" as="geometry">
            <mxPoint x="360" y="189.70999999999998" as="sourcePoint" />
            <mxPoint x="390" y="189.70999999999998" as="targetPoint" />
          </mxGeometry>
        </mxCell>
        <mxCell id="JNDwvkAT6pirvPWPOGVq-64" value="" style="endArrow=classic;startArrow=classic;html=1;rounded=0;" edge="1" parent="1">
          <mxGeometry width="50" height="50" relative="1" as="geometry">
            <mxPoint x="270" y="219.70999999999998" as="sourcePoint" />
            <mxPoint x="300" y="219.70999999999998" as="targetPoint" />
          </mxGeometry>
        </mxCell>
        <mxCell id="JNDwvkAT6pirvPWPOGVq-65" value="" style="endArrow=classic;startArrow=classic;html=1;rounded=0;" edge="1" parent="1">
          <mxGeometry width="50" height="50" relative="1" as="geometry">
            <mxPoint x="270" y="209.70999999999998" as="sourcePoint" />
            <mxPoint x="300" y="209.70999999999998" as="targetPoint" />
          </mxGeometry>
        </mxCell>
        <mxCell id="JNDwvkAT6pirvPWPOGVq-66" value="" style="endArrow=classic;startArrow=classic;html=1;rounded=0;" edge="1" parent="1">
          <mxGeometry width="50" height="50" relative="1" as="geometry">
            <mxPoint x="270" y="199.70999999999998" as="sourcePoint" />
            <mxPoint x="300" y="199.70999999999998" as="targetPoint" />
          </mxGeometry>
        </mxCell>
        <mxCell id="JNDwvkAT6pirvPWPOGVq-67" value="" style="endArrow=classic;startArrow=classic;html=1;rounded=0;" edge="1" parent="1">
          <mxGeometry width="50" height="50" relative="1" as="geometry">
            <mxPoint x="270" y="189.70999999999998" as="sourcePoint" />
            <mxPoint x="300" y="189.70999999999998" as="targetPoint" />
          </mxGeometry>
        </mxCell>
        <mxCell id="JNDwvkAT6pirvPWPOGVq-68" value="" style="endArrow=classic;startArrow=classic;html=1;rounded=0;" edge="1" parent="1">
          <mxGeometry width="50" height="50" relative="1" as="geometry">
            <mxPoint x="180" y="219.71" as="sourcePoint" />
            <mxPoint x="210" y="219.71" as="targetPoint" />
          </mxGeometry>
        </mxCell>
        <mxCell id="JNDwvkAT6pirvPWPOGVq-69" value="" style="endArrow=classic;startArrow=classic;html=1;rounded=0;" edge="1" parent="1">
          <mxGeometry width="50" height="50" relative="1" as="geometry">
            <mxPoint x="180" y="209.71" as="sourcePoint" />
            <mxPoint x="210" y="209.71" as="targetPoint" />
          </mxGeometry>
        </mxCell>
        <mxCell id="JNDwvkAT6pirvPWPOGVq-70" value="" style="endArrow=classic;startArrow=classic;html=1;rounded=0;" edge="1" parent="1">
          <mxGeometry width="50" height="50" relative="1" as="geometry">
            <mxPoint x="180" y="199.71" as="sourcePoint" />
            <mxPoint x="210" y="199.71" as="targetPoint" />
          </mxGeometry>
        </mxCell>
        <mxCell id="JNDwvkAT6pirvPWPOGVq-71" value="" style="endArrow=classic;startArrow=classic;html=1;rounded=0;" edge="1" parent="1">
          <mxGeometry width="50" height="50" relative="1" as="geometry">
            <mxPoint x="180" y="189.71" as="sourcePoint" />
            <mxPoint x="210" y="189.71" as="targetPoint" />
          </mxGeometry>
        </mxCell>
        <mxCell id="JNDwvkAT6pirvPWPOGVq-72" value="" style="endArrow=classic;startArrow=classic;html=1;rounded=0;" edge="1" parent="1">
          <mxGeometry width="50" height="50" relative="1" as="geometry">
            <mxPoint x="120" y="290" as="sourcePoint" />
            <mxPoint x="120" y="190" as="targetPoint" />
            <Array as="points">
              <mxPoint x="70" y="290" />
              <mxPoint x="70" y="190" />
            </Array>
          </mxGeometry>
        </mxCell>
        <mxCell id="JNDwvkAT6pirvPWPOGVq-73" value="" style="endArrow=classic;startArrow=classic;html=1;rounded=0;" edge="1" parent="1">
          <mxGeometry width="50" height="50" relative="1" as="geometry">
            <mxPoint x="120" y="280" as="sourcePoint" />
            <mxPoint x="120" y="200" as="targetPoint" />
            <Array as="points">
              <mxPoint x="80" y="280" />
              <mxPoint x="80" y="200" />
            </Array>
          </mxGeometry>
        </mxCell>
        <mxCell id="JNDwvkAT6pirvPWPOGVq-74" value="" style="endArrow=classic;startArrow=classic;html=1;rounded=0;" edge="1" parent="1">
          <mxGeometry width="50" height="50" relative="1" as="geometry">
            <mxPoint x="120" y="270" as="sourcePoint" />
            <mxPoint x="120" y="210" as="targetPoint" />
            <Array as="points">
              <mxPoint x="90" y="270" />
              <mxPoint x="90" y="210" />
            </Array>
          </mxGeometry>
        </mxCell>
        <mxCell id="JNDwvkAT6pirvPWPOGVq-75" value="" style="endArrow=classic;startArrow=classic;html=1;rounded=0;" edge="1" parent="1">
          <mxGeometry width="50" height="50" relative="1" as="geometry">
            <mxPoint x="120" y="260" as="sourcePoint" />
            <mxPoint x="120" y="220" as="targetPoint" />
            <Array as="points">
              <mxPoint x="100" y="260" />
              <mxPoint x="100" y="220" />
            </Array>
          </mxGeometry>
        </mxCell>
        <mxCell id="JNDwvkAT6pirvPWPOGVq-76" value="Repack 1" style="rounded=0;whiteSpace=wrap;html=1;flipH=0;" vertex="1" parent="1">
          <mxGeometry x="480" y="380" width="60" height="50" as="geometry" />
        </mxCell>
        <mxCell id="JNDwvkAT6pirvPWPOGVq-77" value="AGU 3" style="rounded=0;whiteSpace=wrap;html=1;flipH=0;" vertex="1" parent="1">
          <mxGeometry x="390" y="380" width="60" height="50" as="geometry" />
        </mxCell>
        <mxCell id="JNDwvkAT6pirvPWPOGVq-78" value="LSU 1" style="rounded=0;whiteSpace=wrap;html=1;flipH=0;" vertex="1" parent="1">
          <mxGeometry x="300" y="380" width="60" height="50" as="geometry" />
        </mxCell>
        <mxCell id="JNDwvkAT6pirvPWPOGVq-79" value="AGU 4" style="rounded=0;whiteSpace=wrap;html=1;flipH=0;" vertex="1" parent="1">
          <mxGeometry x="210" y="380" width="60" height="50" as="geometry" />
        </mxCell>
        <mxCell id="JNDwvkAT6pirvPWPOGVq-80" value="AGU 5" style="rounded=0;whiteSpace=wrap;html=1;flipH=0;" vertex="1" parent="1">
          <mxGeometry x="120" y="380" width="60" height="50" as="geometry" />
        </mxCell>
        <mxCell id="JNDwvkAT6pirvPWPOGVq-81" value="" style="endArrow=classic;startArrow=classic;html=1;rounded=0;" edge="1" parent="1">
          <mxGeometry width="50" height="50" relative="1" as="geometry">
            <mxPoint x="450" y="419.71" as="sourcePoint" />
            <mxPoint x="480" y="419.71" as="targetPoint" />
          </mxGeometry>
        </mxCell>
        <mxCell id="JNDwvkAT6pirvPWPOGVq-82" value="" style="endArrow=classic;startArrow=classic;html=1;rounded=0;" edge="1" parent="1">
          <mxGeometry width="50" height="50" relative="1" as="geometry">
            <mxPoint x="450" y="409.71" as="sourcePoint" />
            <mxPoint x="480" y="409.71" as="targetPoint" />
          </mxGeometry>
        </mxCell>
        <mxCell id="JNDwvkAT6pirvPWPOGVq-83" value="" style="endArrow=classic;startArrow=classic;html=1;rounded=0;" edge="1" parent="1">
          <mxGeometry width="50" height="50" relative="1" as="geometry">
            <mxPoint x="450" y="399.71" as="sourcePoint" />
            <mxPoint x="480" y="399.71" as="targetPoint" />
          </mxGeometry>
        </mxCell>
        <mxCell id="JNDwvkAT6pirvPWPOGVq-84" value="" style="endArrow=classic;startArrow=classic;html=1;rounded=0;" edge="1" parent="1">
          <mxGeometry width="50" height="50" relative="1" as="geometry">
            <mxPoint x="450" y="389.71" as="sourcePoint" />
            <mxPoint x="480" y="389.71" as="targetPoint" />
          </mxGeometry>
        </mxCell>
        <mxCell id="JNDwvkAT6pirvPWPOGVq-85" value="" style="endArrow=classic;startArrow=classic;html=1;rounded=0;" edge="1" parent="1">
          <mxGeometry width="50" height="50" relative="1" as="geometry">
            <mxPoint x="360" y="419.71" as="sourcePoint" />
            <mxPoint x="390" y="419.71" as="targetPoint" />
          </mxGeometry>
        </mxCell>
        <mxCell id="JNDwvkAT6pirvPWPOGVq-86" value="" style="endArrow=classic;startArrow=classic;html=1;rounded=0;" edge="1" parent="1">
          <mxGeometry width="50" height="50" relative="1" as="geometry">
            <mxPoint x="360" y="409.71" as="sourcePoint" />
            <mxPoint x="390" y="409.71" as="targetPoint" />
          </mxGeometry>
        </mxCell>
        <mxCell id="JNDwvkAT6pirvPWPOGVq-87" value="" style="endArrow=classic;startArrow=classic;html=1;rounded=0;" edge="1" parent="1">
          <mxGeometry width="50" height="50" relative="1" as="geometry">
            <mxPoint x="360" y="399.71" as="sourcePoint" />
            <mxPoint x="390" y="399.71" as="targetPoint" />
          </mxGeometry>
        </mxCell>
        <mxCell id="JNDwvkAT6pirvPWPOGVq-88" value="" style="endArrow=classic;startArrow=classic;html=1;rounded=0;" edge="1" parent="1">
          <mxGeometry width="50" height="50" relative="1" as="geometry">
            <mxPoint x="360" y="389.71" as="sourcePoint" />
            <mxPoint x="390" y="389.71" as="targetPoint" />
          </mxGeometry>
        </mxCell>
        <mxCell id="JNDwvkAT6pirvPWPOGVq-89" value="" style="endArrow=classic;startArrow=classic;html=1;rounded=0;" edge="1" parent="1">
          <mxGeometry width="50" height="50" relative="1" as="geometry">
            <mxPoint x="270" y="419.71" as="sourcePoint" />
            <mxPoint x="300" y="419.71" as="targetPoint" />
          </mxGeometry>
        </mxCell>
        <mxCell id="JNDwvkAT6pirvPWPOGVq-90" value="" style="endArrow=classic;startArrow=classic;html=1;rounded=0;" edge="1" parent="1">
          <mxGeometry width="50" height="50" relative="1" as="geometry">
            <mxPoint x="270" y="409.71" as="sourcePoint" />
            <mxPoint x="300" y="409.71" as="targetPoint" />
          </mxGeometry>
        </mxCell>
        <mxCell id="JNDwvkAT6pirvPWPOGVq-91" value="" style="endArrow=classic;startArrow=classic;html=1;rounded=0;" edge="1" parent="1">
          <mxGeometry width="50" height="50" relative="1" as="geometry">
            <mxPoint x="270" y="399.71" as="sourcePoint" />
            <mxPoint x="300" y="399.71" as="targetPoint" />
          </mxGeometry>
        </mxCell>
        <mxCell id="JNDwvkAT6pirvPWPOGVq-92" value="" style="endArrow=classic;startArrow=classic;html=1;rounded=0;" edge="1" parent="1">
          <mxGeometry width="50" height="50" relative="1" as="geometry">
            <mxPoint x="270" y="389.71" as="sourcePoint" />
            <mxPoint x="300" y="389.71" as="targetPoint" />
          </mxGeometry>
        </mxCell>
        <mxCell id="JNDwvkAT6pirvPWPOGVq-93" value="" style="endArrow=classic;startArrow=classic;html=1;rounded=0;" edge="1" parent="1">
          <mxGeometry width="50" height="50" relative="1" as="geometry">
            <mxPoint x="180" y="419.71000000000004" as="sourcePoint" />
            <mxPoint x="210" y="419.71000000000004" as="targetPoint" />
          </mxGeometry>
        </mxCell>
        <mxCell id="JNDwvkAT6pirvPWPOGVq-94" value="" style="endArrow=classic;startArrow=classic;html=1;rounded=0;" edge="1" parent="1">
          <mxGeometry width="50" height="50" relative="1" as="geometry">
            <mxPoint x="180" y="409.71000000000004" as="sourcePoint" />
            <mxPoint x="210" y="409.71000000000004" as="targetPoint" />
          </mxGeometry>
        </mxCell>
        <mxCell id="JNDwvkAT6pirvPWPOGVq-95" value="" style="endArrow=classic;startArrow=classic;html=1;rounded=0;" edge="1" parent="1">
          <mxGeometry width="50" height="50" relative="1" as="geometry">
            <mxPoint x="180" y="399.71000000000004" as="sourcePoint" />
            <mxPoint x="210" y="399.71000000000004" as="targetPoint" />
          </mxGeometry>
        </mxCell>
        <mxCell id="JNDwvkAT6pirvPWPOGVq-96" value="" style="endArrow=classic;startArrow=classic;html=1;rounded=0;" edge="1" parent="1">
          <mxGeometry width="50" height="50" relative="1" as="geometry">
            <mxPoint x="180" y="389.71000000000004" as="sourcePoint" />
            <mxPoint x="210" y="389.71000000000004" as="targetPoint" />
          </mxGeometry>
        </mxCell>
        <mxCell id="JNDwvkAT6pirvPWPOGVq-97" value="Remote-Kern&lt;br&gt;Registerdatei" style="rounded=0;whiteSpace=wrap;html=1;" vertex="1" parent="1">
          <mxGeometry x="10" y="380" width="80" height="50" as="geometry" />
        </mxCell>
        <mxCell id="JNDwvkAT6pirvPWPOGVq-98" value="" style="endArrow=classic;startArrow=classic;html=1;rounded=0;" edge="1" parent="1">
          <mxGeometry width="50" height="50" relative="1" as="geometry">
            <mxPoint x="90" y="419.71000000000004" as="sourcePoint" />
            <mxPoint x="120" y="419.71000000000004" as="targetPoint" />
          </mxGeometry>
        </mxCell>
        <mxCell id="JNDwvkAT6pirvPWPOGVq-99" value="" style="endArrow=classic;startArrow=classic;html=1;rounded=0;" edge="1" parent="1">
          <mxGeometry width="50" height="50" relative="1" as="geometry">
            <mxPoint x="90" y="409.71000000000004" as="sourcePoint" />
            <mxPoint x="120" y="409.71000000000004" as="targetPoint" />
          </mxGeometry>
        </mxCell>
        <mxCell id="JNDwvkAT6pirvPWPOGVq-100" value="" style="endArrow=classic;startArrow=classic;html=1;rounded=0;" edge="1" parent="1">
          <mxGeometry width="50" height="50" relative="1" as="geometry">
            <mxPoint x="90" y="399.71000000000004" as="sourcePoint" />
            <mxPoint x="120" y="399.71000000000004" as="targetPoint" />
          </mxGeometry>
        </mxCell>
        <mxCell id="JNDwvkAT6pirvPWPOGVq-101" value="" style="endArrow=classic;startArrow=classic;html=1;rounded=0;" edge="1" parent="1">
          <mxGeometry width="50" height="50" relative="1" as="geometry">
            <mxPoint x="90" y="389.71000000000004" as="sourcePoint" />
            <mxPoint x="120" y="389.71000000000004" as="targetPoint" />
          </mxGeometry>
        </mxCell>
        <mxCell id="JNDwvkAT6pirvPWPOGVq-102" value="Primärkern&lt;br&gt;Registerdatei" style="rounded=0;whiteSpace=wrap;html=1;" vertex="1" parent="1">
          <mxGeometry x="570" y="180" width="80" height="50" as="geometry" />
        </mxCell>
        <mxCell id="JNDwvkAT6pirvPWPOGVq-103" value="" style="endArrow=classic;startArrow=classic;html=1;rounded=0;" edge="1" parent="1">
          <mxGeometry width="50" height="50" relative="1" as="geometry">
            <mxPoint x="540" y="219.71000000000004" as="sourcePoint" />
            <mxPoint x="570" y="219.71000000000004" as="targetPoint" />
          </mxGeometry>
        </mxCell>
        <mxCell id="JNDwvkAT6pirvPWPOGVq-104" value="" style="endArrow=classic;startArrow=classic;html=1;rounded=0;" edge="1" parent="1">
          <mxGeometry width="50" height="50" relative="1" as="geometry">
            <mxPoint x="540" y="209.71000000000004" as="sourcePoint" />
            <mxPoint x="570" y="209.71000000000004" as="targetPoint" />
          </mxGeometry>
        </mxCell>
        <mxCell id="JNDwvkAT6pirvPWPOGVq-105" value="" style="endArrow=classic;startArrow=classic;html=1;rounded=0;" edge="1" parent="1">
          <mxGeometry width="50" height="50" relative="1" as="geometry">
            <mxPoint x="540" y="199.71000000000004" as="sourcePoint" />
            <mxPoint x="570" y="199.71000000000004" as="targetPoint" />
          </mxGeometry>
        </mxCell>
        <mxCell id="JNDwvkAT6pirvPWPOGVq-106" value="" style="endArrow=classic;startArrow=classic;html=1;rounded=0;" edge="1" parent="1">
          <mxGeometry width="50" height="50" relative="1" as="geometry">
            <mxPoint x="540" y="189.71000000000004" as="sourcePoint" />
            <mxPoint x="570" y="189.71000000000004" as="targetPoint" />
          </mxGeometry>
        </mxCell>
      </root>
    </mxGraphModel>
  </diagram>
</mxfile>
